HIERARCHY
ROOT ui
{
	 OFFSET 0 0 0
	 CHANNELS 3 XPosition YPosition Z Position
	 EndSite
	 {
	 OFFSET 0 -1 0
	 }
}
ROOT li
{
	 OFFSET 0 0 0
	 CHANNELS 3 XPosition YPosition Z Position
	 EndSite
	 {
	 OFFSET 0 -1 0
	 }
}
ROOT ul
{
	 OFFSET 0 0 0
	 CHANNELS 3 XPosition YPosition Z Position
	 EndSite
	 {
	 OFFSET 0 -1 0
	 }
}
ROOT ll
{
	 OFFSET 0 0 0
	 CHANNELS 3 XPosition YPosition Z Position
	 EndSite
	 {
	 OFFSET 0 -1 0
	 }
}
ROOT tt
{
	 OFFSET 0 0 0
	 CHANNELS 3 XPosition YPosition Z Position
	 EndSite
	 {
	 OFFSET 0 -1 0
	 }
}
ROOT tb
{
	 OFFSET 0 0 0
	 CHANNELS 3 XPosition YPosition Z Position
	 EndSite
	 {
	 OFFSET 0 -1 0
	 }
}
ROOT td
{
	 OFFSET 0 0 0
	 CHANNELS 3 XPosition YPosition Z Position
	 EndSite
	 {
	 OFFSET 0 -1 0
	 }
}
ROOT v
{
	 OFFSET 0 0 0
	 CHANNELS 3 XPosition YPosition Z Position
	 EndSite
	 {
	 OFFSET 0 -1 0
	 }
}
ROOT bn
{
	 OFFSET 0 0 0
	 CHANNELS 3 XPosition YPosition Z Position
	 EndSite
	 {
	 OFFSET 0 -1 0
	 }
}
MOTION
Frames: 32
Frame Time: 0.002
-0.016615314483642576	0.006221500873565674	0		0.4083054504394531	-2.449614990234375	0		-0.8917074584960938	0.4529638671875	0		-0.3934466247558594	-3.172378173828125	0		1.69181884765625	-0.8489889526367187	0		3.205872314453125	0.07011212921142577	0		4.2994189453125	0.15326345825195312	0		5.98521044921875	0.41791195678710935	0		-0.12466604614257812	5.95205712890625	0		
0.026256580352783204	-0.005518232822418213	0		0.45025067138671876	-2.454343505859375	0		-0.8727681274414063	0.4523710632324219	0		-0.37546664428710935	-3.172958740234375	0		1.6887535400390625	-0.8524088745117188	0		3.142713134765625	0.05410184860229492	0		4.2994521484375	0.16685052490234376	0		5.9850458984375	0.40152081298828124	0		-0.12577484130859376	5.953603515625	0		
-0.020764556884765625	0.0013294630050659179	0		0.40017880249023435	-2.45947119140625	0		-0.9128402709960938	0.4521630859375	0		-0.36557086181640625	-3.1844873046875	0		1.679630126953125	-0.8627901611328125	0		3.178689453125	0.0604427375793457	0		4.29938037109375	0.1664373474121094	0		5.9760849609375	0.418187255859375	0		-0.12590972900390626	5.953142578125	0		
0.02611068344116211	-0.006435063838958741	0		0.42709506225585936	-2.4651005859375	0		-0.9129234619140625	0.4516947326660156	0		-0.40058651733398437	-3.180721435546875	0		1.638569091796875	-0.8619622802734375	0		3.1406572265625	0.06726770782470703	0		4.2943447265625	0.17305755615234375	0		5.980943359375	0.4087636413574219	0		-0.12804141235351563	5.9546962890625	0		
-0.025896577835083007	0.005448680877685547	0		0.40006884765625	-2.460375	0		-0.901963134765625	0.4591583251953125	0		-0.39560552978515623	-3.176213134765625	0		1.6794847412109375	-0.8636655883789063	0		3.15466064453125	0.08075634765625	0		4.2563916015625	0.1938948974609375	0		5.9847998046875	0.40034912109375	0		-0.12720014190673828	5.95323388671875	0		
0.036995468139648435	0.0025906679630279543	0		0.42898165893554685	-2.464007568359375	0		-0.908029052734375	0.46373892211914064	0		-0.3956648864746094	-3.176666015625	0		1.67141357421875	-0.8620441284179687	0		3.135436767578125	0.06046559906005859	0		4.256294921875	0.19349002075195312	0		5.97581298828125	0.4170231323242187	0		-0.12835130310058593	5.9537900390625	0		
-0.04812199783325195	-2.978520095348358E-4	0		0.38896026611328127	-2.45618408203125	0		-0.9131594848632812	0.45932177734375	0		-0.3777319946289063	-3.17722705078125	0		1.6593165283203124	-0.8633890991210937	0		3.14951123046875	0.08696665954589844	0		4.26022998046875	0.19906597900390624	0		5.97570849609375	0.4166451110839844	0		-0.12851303100585937	5.9533486328125	0		
0.03377142715454102	-0.0012593419551849365	0		0.41383401489257815	-2.46377197265625	0		-0.8792437133789063	0.46266238403320314	0		-0.4227265625	-3.16536962890625	0		1.656200927734375	-0.8667831420898438	0		3.15032763671875	0.07456175994873047	0		4.29321826171875	0.21346237182617187	0		5.988541015625	0.4071905822753906	0		-0.12967068481445312	5.953923828125	0		
-0.028380443572998047	-0.008276047706604004	0		0.3937174072265625	-2.469056640625	0		-0.9183551635742188	0.46248822021484376	0		-0.37889608764648436	-3.180075927734375	0		1.662062255859375	-0.8732242431640626	0		3.131232421875	0.07629621124267578	0		4.251107421875	0.21335446166992186	0		5.9804296875	0.40688070678710936	0		-0.12983473205566406	5.95350439453125	0		
0.03657437515258789	9.001439809799194E-4	0		0.39765646362304685	-2.465482666015625	0		-0.9084679565429687	0.46201190185546875	0		-0.40691131591796875	-3.170302490234375	0		1.63297509765625	-0.871426025390625	0		3.1420390625	0.06284945678710938	0		4.23599609375	0.21308343505859376	0		5.9883173828125	0.4064782104492187	0		-0.1280087127685547	5.9510869140625	0		
-0.04647263717651367	0.010049338340759278	0		0.39063446044921873	-2.45582080078125	0		-0.8795210571289063	0.47043109130859373	0		-0.3709993896484375	-3.171924072265625	0		1.6618619384765625	-0.8739857788085937	0		3.126138427734375	0.09459146118164062	0		4.2359765625	0.22672994995117188	0		5.989310546875	0.4221341552734375	0		-0.12915762329101563	5.9517060546875	0		
0.033345699310302734	-0.0028318300247192384	0		0.3845115966796875	-2.462144775390625	0		-0.889626953125	0.4701231994628906	0		-0.42002587890625	-3.16397705078125	0		1.65377880859375	-0.8722877197265625	0		3.122842041015625	0.06426891326904297	0		4.273876953125	0.2271494140625	0		5.97515966796875	0.41490328979492186	0		-0.13129161071777343	5.95335205078125	0		
-0.026716056823730468	0.0022112278938293457	0		0.38241354370117187	-2.465472412109375	0		-0.85072607421875	0.469523193359375	0		-0.36308831787109375	-3.16268994140625	0		1.6556314697265626	-0.8816325073242187	0		3.1137529296875	0.06500445556640624	0		4.2217802734375	0.22716799926757814	0		5.97506201171875	0.4145999450683594	0		-0.1314264373779297	5.95300830078125	0		
0.028192346572875976	5.386570096015931E-4	0		0.3823438720703125	-2.4657890625	0		-0.9288112182617188	0.4697008361816406	0		-0.41815277099609377	-3.1626572265625	0		1.64454638671875	-0.8828709716796875	0		3.114591552734375	0.05269756698608399	0		4.2216943359375	0.22687258911132813	0		5.9749755859375	0.41431591796875	0		-0.13154515075683593	5.9526884765625	0		
0.0321477279663086	0.004219864845275879	0		0.3932535400390625	-2.47115087890625	0		-0.8848590087890625	0.4731203308105469	0		-0.3812080383300781	-3.163190185546875	0		1.6475062255859374	-0.8791753540039062	0		3.099649658203125	0.07251583099365234	0		4.2216220703125	0.22659939575195312	0		5.9749033203125	0.41405242919921875	0		-0.1316449432373047	5.95239501953125	0		
0.03208986663818359	0.0039534571170806885	0		0.37732171630859374	-2.4533134765625	0		-0.9348599853515625	0.4821709899902344	0		-0.4221429443359375	-3.1461953125	0		1.647451904296875	-0.8794351196289063	0		3.114462890625	0.052166099548339846	0		4.2406201171875	0.2352271728515625	0		5.97484375	0.41381036376953123	0		-0.13172715759277343	5.9521279296875	0		
-0.022961894989013673	0.004066697120666504	0		0.3752575378417969	-2.4565390625	0		-0.8999407958984375	0.47770367431640626	0		-0.4221856689453125	-3.1464365234375	0		1.6384149169921876	-0.8776118774414062	0		3.109454833984375	0.05896832275390625	0		4.23056640625	0.23506463623046875	0		5.9837890625	0.4135321350097656	0		-0.1317992706298828	5.9518876953125	0		
-0.0220722713470459	-0.004153310775756836	0		0.37319158935546876	-2.458739013671875	0		-0.9060264892578125	0.47352639770507815	0		-0.4222371826171875	-3.146651123046875	0		1.627351806640625	-0.8787510986328125	0		3.0812744140625	0.039942039489746096	0		4.2264677734375	0.22888632202148437	0		5.98372900390625	0.41333273315429686	0		-0.1318661193847656	5.95267333984375	0		
-0.02711494255065918	6.898490190505981E-4	0		0.37312066650390624	-2.45892724609375	0		-0.9000765991210937	0.4772976379394531	0		-0.426204345703125	-3.1308154296875	0		1.589317626953125	-0.8726937255859375	0		3.043168212890625	0.035001945495605466	0		4.207392578125	0.2288258056640625	0		5.97959619140625	0.4041792907714844	0		-0.13195681762695313	5.951484375	0		
-0.01821685600280762	-5.327829718589783E-4	0		0.3310539245605469	-2.45482275390625	0		-0.9291781005859375	0.4763179321289063	0		-0.4083038330078125	-3.132095947265625	0		1.5922421875	-0.8698765869140626	0		3.067937744140625	0.013679705619812011	0		4.2072587890625	0.22266433715820313	0		5.9885	0.403961669921875	0		-0.13006997680664062	5.949306640625	0		
0.039685546875	0.0019532339572906495	0		0.38096966552734374	-2.450285400390625	0		-0.8572632446289062	0.4807139892578125	0		-0.41332275390625	-3.117206298828125	0		1.586165283203125	-0.8639800415039063	0		3.055982666015625	0.03861453247070312	0		4.2071943359375	0.230522705078125	0		5.98749365234375	0.4208265380859375	0		-0.1301864776611328	5.94916455078125	0		
-0.023440927505493165	0.003236933946609497	0		0.34782211303710936	-2.452194091796875	0		-0.857397216796875	0.4805942077636719	0		-0.434336181640625	-3.098192138671875	0		1.6160108642578126	-0.8672933349609375	0		3.028650146484375	0.007666574001312256	0		4.19802197265625	0.2244583740234375	0		5.97925048828125	0.40375503540039065	0		-0.13230487060546875	5.95105712890625	0		
0.02738031578063965	-0.0011898479461669921	0		0.37463482666015624	-2.45746728515625	0		-0.867599853515625	0.47255960083007814	0		-0.4185111389160156	-3.10139404296875	0		1.56294873046875	-0.8530552978515625	0		3.028498291015625	0.007563511848449707	0		4.1888388671875	0.21941207885742187	0		5.97909912109375	0.4036488037109375	0		-0.13145698547363283	5.949951171875	0		
-0.0187894344329834	-9.759520292282104E-4	0		0.31851266479492185	-2.44918994140625	0		-0.8627442016601562	0.47644769287109373	0		-0.4136548156738281	-3.096506591796875	0		1.603762939453125	-0.8554019165039063	0		3.033288818359375	0.0014455829858779907	0		4.1795849609375	0.206382568359375	0		5.97398681640625	0.41259002685546875	0		-0.13261175537109374	5.95087646484375	0		
0.0270185546875	-0.0013353339433670045	0		0.3513287048339844	-2.447466796875	0		-0.895907958984375	0.4805968933105469	0		-0.5097347717285157	-3.077954345703125	0		1.547635498046875	-0.8451102905273438	0		3.011143310546875	0.008516118049621582	0		4.1654404296875	0.21339981079101564	0		5.9826875	0.3954560546875	0		-0.13080342102050782	5.9487998046875	0		
-0.02014324188232422	0.006917109966278076	0		0.32413482666015625	-2.443343505859375	0		-0.8680636596679687	0.4893701171875	0		-0.42086199951171877	-3.06357373046875	0		1.5605089111328125	-0.8312468872070312	0		3.0007880859375	-0.013475662231445312	0		4.18423291015625	0.21421905517578124	0		5.98257666015625	0.41139199829101564	0		-0.13199649047851564	5.9497578125	0		
0.03455691146850586	-0.0024715590476989745	0		0.34191241455078125	-2.43949560546875	0		-0.8783544311523438	0.4814012451171875	0		-0.4850330810546875	-3.051197509765625	0		1.5283497314453125	-0.8180816650390625	0		3.017546875	-0.013628888130187988	0		4.16187109375	0.19531396484375	0		5.97334375	0.4123974304199219	0		-0.1322208709716797	5.94972216796875	0		
-0.024682546615600588	0.002882643938064575	0		0.3616639099121094	-2.43464990234375	0		-0.8836577758789063	0.47641146850585936	0		-0.42226504516601565	-3.043625732421875	0		1.5431063232421875	-0.81320751953125	0		2.988236083984375	-0.019476295471191406	0		4.1566962890625	0.21030902099609375	0		5.973072265625	0.41235458374023437	0		-0.1324755401611328	5.94969775390625	0		
-0.02404417037963867	-0.0051397871971130375	0		0.31232754516601563	-2.437352294921875	0		-0.9179400024414063	0.4806165771484375	0		-0.5184674072265625	-3.02502392578125	0		1.5018907470703124	-0.7979654541015625	0		2.98388720703125	-0.025476373672485352	0		4.16625830078125	0.19021612548828126	0		5.98165380859375	0.3952615051269531	0		-0.1327664794921875	5.94968212890625	0		
-0.02036935806274414	-0.0011758179664611817	0		0.3249490051269531	-2.440447265625	0		-0.8692323608398438	0.48929400634765624	0		-0.4717650146484375	-3.0153349609375	0		1.5096014404296876	-0.788032470703125	0		2.990401123046875	-0.04654126739501953	0		4.1469541015625	0.1973145751953125	0		5.98635595703125	0.4031988220214844	0		-0.13111024475097657	5.94765966796875	0		
-0.021707651138305663	0.006823990821838379	0		0.3126927490234375	-2.418378173828125	0		-0.8696204833984374	0.4892904357910156	0		-0.5209774169921875	-2.986025146484375	0		1.504324951171875	-0.7700123291015625	0		2.996178466796875	-0.02059711456298828	0		4.1515654296875	0.197262451171875	0		5.9900185546875	0.41114602661132815	0		-0.1314798126220703	5.9476533203125	0		
0.03281081771850586	-0.002534796953201294	0		0.364190185546875	-2.42971875	0		-0.813093994140625	0.4809216003417969	0		-0.4933526306152344	-2.977208740234375	0		1.492977294921875	-0.7579517822265625	0		2.95055712890625	-0.05132181930541992	0		4.1420673828125	0.18530233764648438	0		5.97654638671875	0.40320468139648435	0		-0.13386921691894532	5.94966162109375	0		
